<?xml version="1.0" encoding="UTF-8"?>
<svg width="150pt" height="149.05pt" version="1.1" viewBox="0 0 150 149.05" xmlns="http://www.w3.org/2000/svg" xmlns:xlink="http://www.w3.org/1999/xlink">
 <defs></defs>
 <path d="m91.7 129.67s-6.1381 1.9694-8.6873 2.3593c-2.5092 0.38987-8.4674 0.77977-8.4674 0.77977s-5.1684-0.69979-8.5773-0.92971c-3.0191-0.19987-8.3774-2.0594-8.3774-2.0594l-0.079847-30.211v-33.2s0.9697-24.492-1.8294-30.221c-2.7991-5.7382-17.505-18.824-21.763-23.673 10.877-7.2078 16.955-8.4474 23.673-10.437 6.7479-2.0094 16.955-2.0793 16.955-2.0793s9.7969 0.069866 16.865 2.0094c7.2777 1.9894 13.956 3.299 24.382 10.367-3.079 3.8188-19.554 18.954-22.043 24.102-2.3493 4.8485-2.1793 29.931-2.1793 29.931v33.2z" fill="#0a8c6e" stroke-width="2.5592"/>
 <g fill="#fff" stroke-width="2.5592">
  <path d="m74.555 32.05c0.05989 0.06987 0.11005 0.15995 0.15995 0.27992 0.16993 0.39988 0.97969 1.3296 2.4392 2.7991 1.0297 0.94969 2.5992 1.9294 4.7185 2.9291 1.5995 0.82974 2.8791 1.3096 3.8288 1.4295 1.1096 0.14997 1.3995 0.52983 0.85974 1.1097-0.47985 0.51982-1.7594 1.0097-3.8088 1.4795-0.9597 0.25991-1.8594-0.13001-2.7191-1.1696-3.0491-3.5689-5.1484-5.6482-6.298-6.2181-0.74977 1.5395-2.0494 3.0091-3.9188 4.4086-1.3696 1.0497-2.3893 1.6895-3.079 1.9194-1.2296 0.45986-2.0593 0.6098-2.4892 0.43985-0.50984-0.18989-0.89974-0.5698-1.1696-1.1396-0.2398-0.55982-0.30992-1.0197-0.17991-1.3796 0.07985-0.19987 0.40988-0.3599 0.97971-0.45986 1.3196-0.22982 2.7491-0.82974 4.3086-1.8194 0.66979-0.42984 1.2896-0.84973 1.8594-1.2696 1.4595-1.2596 2.2593-2.6992 2.4093-4.2987-1.4796 0.06987-2.7891 0.32991-3.9388 0.79975-1.4296 0.53984-2.3293 0.53984-2.6892 0-0.30989-0.47985-0.32988-0.98969-0.0499-1.5295 0.3599-0.58982 0.9597-0.98969 1.8094-1.2196 0.66979-0.13999 1.9794-0.14997 3.9188-0.0499 0.3199-0.02047 0.64981-0.02047 0.97971 0-0.02047-0.85971-0.07985-1.8394-0.17991-2.9291-0.0499-0.65979 0.02994-1.1596 0.25994-1.5295 0.20986-0.32991 0.54982-0.49986 1.0397-0.51985 0.33989-0.01024 0.6398 0.12003 0.89971 0.38987 0.25991 0.30992 0.35988 0.86974 0.30989 1.6595-0.01024 0.43988-0.01024 0.86974 0 1.2996 0 0.56983-0.01024 1.1196-0.02047 1.6295 1.7095-0.02047 3.4689-0.02047 5.2884-0.02047 1.0097-0.02047 1.4895 0.17991 1.4195 0.58982-0.10006 0.42987-0.53981 0.9197-1.3196 1.4595-0.40988 0.26992-1.1196 0.32991-2.0993 0.17991-1.2396-0.13999-2.3793-0.21984-3.3889-0.2398-0.07012 0.37989-0.12003 0.70979-0.13999 0.98969"/>
  <path d="m75.245 66.549c0 1.5295-0.14997 2.4692-0.45986 2.8291-0.38987 0.39988-0.81974 0.33989-1.2796-0.17991-0.3199-0.32991-0.41986-1.0097-0.3199-2.0494v-1.9994c-4.5586 3.169-7.5076 4.5386-8.8272 4.1287-0.36991-0.13999-0.6798-0.42987-0.93971-0.85974-0.21984-0.44986-0.21984-0.80976 0-1.0796 0.21984-0.26992 0.89971-0.44988 2.0294-0.54984 3.6888-0.99967 6.0981-2.0494 7.2277-3.139 0-0.02994 0.01024-0.0499 0.02047-0.0499-0.71978 0.02047-1.6995 0.2398-2.9291 0.66979-1.2196 0.46984-1.9994 0.46984-2.3293 0-0.28991-0.38989-0.30989-0.82974-0.0499-1.3196 0.32991-0.52983 0.84973-0.88971 1.5795-1.0597 0.64978-0.13999 1.7994-0.15995 3.4489-0.0499 0.26992-0.02047 0.54984-0.02047 0.82974 0 0.06987-0.2398 0.17991-0.41986 0.32991-0.51985 0.51982-0.41986 0.9597-0.40986 1.3396 0.02047 0.12003 0.15995 0.20985 0.3199 0.2799 0.49984 1.5395-0.02047 3.129-0.02994 4.7685-0.02994 0.88973-0.01024 1.2896 0.15995 1.2196 0.51982-0.08983 0.3599-0.46984 0.77976-1.1396 1.2396-0.35987 0.25003-0.97969 0.30989-1.8394 0.18989-0.8897-0.13001-1.6895-0.18989-2.4092-0.18989 0.89971 0.89971 2.0393 1.6095 3.4189 2.1293 2.5392 0.97969 4.5886 1.4395 6.1381 1.3696 0.93971-0.07985 1.2196 0.16993 0.85974 0.74977-0.28991 0.48983-1.2396 1.0897-2.8291 1.8194-0.69979 0.37989-1.4995 0.21984-2.3793-0.46984-2.7991-2.2993-4.7185-3.5989-5.7582-3.9088zm-8.5673-12.696c-0.75978 0.25994-1.3296 0.17991-1.7095-0.22982-0.27992-0.39987-0.16993-0.77976 0.30989-1.1696 1.1596-0.92971 2.1593-1.4196 3.0091-1.4796-0.02047-0.01024-0.02994-0.02994-0.02994-0.0499-0.18989-0.47985-0.12003-0.84973 0.20985-1.1096 0.58982-0.37989 1.2196-0.3599 1.9094 0.06987 0.36988 0.25994 0.48983 0.60981 0.36988 1.0397-0.0499 0.09008-0.09008 0.21984-0.11004 0.38989 0.34989 0 0.6798 0.02994 0.98969 0.07985 0.84973 0 1.3096 0.2398 1.3796 0.72976 0.01024 0.33991-0.26992 0.56983-0.85974 0.68978-0.58979 0.09008-1.1296 0.18989-1.6395 0.3199 0.06987 0.78977-0.0499 1.2996-0.3599 1.5295-0.25991 0.2398-0.52983 0.19987-0.79975-0.11004-0.21984-0.21984-0.39988-0.5998-0.51982-1.1396-1.0697 0.18989-1.7894 0.33989-2.1493 0.43985m2.6192 3.9788c-0.35988 0.09008-0.67978 0.18989-0.9597 0.30992-1.2496 0.46984-2.0294 0.46984-2.3293 0-0.29991-0.38989-0.3199-0.83975-0.05988-1.3296 0.49984-0.81974 1.5195-1.2296 3.059-1.2296 0.11005-0.16993 0.25991-0.28993 0.46987-0.3599 0.50982-0.22982 0.9597-0.12003 1.3396 0.30989 0.05989 0.02994 0.09008 0.09008 0.11005 0.15995h0.3599c0.65979-0.02047 1.3096-0.02047 1.9494 0-0.02994-0.20985-0.05989-0.41986-0.07985-0.62979-0.09008-0.71977 0.13001-1.1596 0.64978-1.3196 0.52983-0.13999 0.9597 0.01024 1.2696 0.43985 0.28991 0.42987 0.40986 0.93971 0.35988 1.5095 0.54982-0.02047 1.1396-0.02047 1.7695 0 0.07985-0.49984 0.36988-0.78974 0.84973-0.85971 0.0499-0.02047 0.11004-0.02047 0.17991-0.02047-0.07985-0.05989-0.13999-0.10006-0.14997-0.11004-0.27992-0.2398-0.41989-0.72978-0.41989-1.4496-0.77974-0.15995-1.4395-0.15995-1.9994 0-0.44986 0.13999-0.72976 0.02994-0.84973-0.33989-0.18989-0.40988-0.12003-0.80976 0.20985-1.1896 0.28993-0.37986 0.70979-0.50984 1.2696-0.38987 0.18989 0.0499 0.53984 0.06987 1.0597 0.0499 0.09008-0.02047 0.17991-0.02047 0.28991 0v-0.07985c-0.13001-0.5998 0.11004-1.0097 0.68978-1.2396 0.45986-0.20986 0.91972-0.12003 1.3996 0.25991 0.37989 0.35987 0.48983 0.72976 0.30989 1.1196 1.1796 0.0499 2.3893 0.13001 3.6389 0.24978 0.45984 0.03992 0.56981 0.3199 0.30989 0.85974-0.34989 0.66979-0.87972 1.1996-1.5795 1.5795-0.60981 0.35987-1.2996 0.32991-2.0793-0.10006-0.28991-0.17991-0.5998-0.30992-0.92971-0.41989-0.12003 0.51985-0.39987 0.93971-0.82974 1.2496 0.3599 0.07985 0.61981 0.35988 0.77976 0.82972h1.8394c0.89971-0.02047 1.3096 0.14997 1.2396 0.50984-0.09008 0.34989-0.46987 0.75977-1.1596 1.2196-0.34989 0.2398-0.9597 0.28991-1.8494 0.17991h-0.17991c-0.19987 0.37989-0.33989 0.90972-0.40986 1.5995 0.2398 0.06987 0.36988 0.19987 0.38987 0.36988 0.0499 0.30989-0.11005 0.64981-0.46984 1.0297-0.12003 0.09008-0.22982 0.18989-0.30992 0.28991-0.42987 0.21984-1.1696 0.23007-2.1993 0.02047-2.0594-0.48986-4.0687-0.34989-6.0181 0.41986-0.67977 0.18989-1.0696 0.0499-1.1896-0.43988-0.09008-0.29989 0.02047-0.62979 0.33989-1.0097 0.07985-0.12003 0.15995-0.18989 0.23007-0.20985-0.15995-0.44986-0.25994-1.0597-0.30992-1.8394m1.9594 1.4895h2.1293c-0.0499-0.42987-0.0499-0.97969 0-1.6595v-0.38989c-0.72978 0.02047-1.3896 0.06987-2.0194 0.13001v0.07985c-0.01024 0.06987-0.02994 0.13999-0.0499 0.20985-0.05989 0.27992-0.09008 0.47985-0.10006 0.59982 0.03992 0.40988 0.05988 0.74977 0.03992 1.0297m5.7382-0.19987c0.0499-0.86974 0.12003-1.4395 0.22982-1.7195-0.72978-0.07985-1.3996-0.13001-2.0194-0.13001-0.03992 0.46987-0.0499 0.82974-0.0499 1.0897-0.02047 0.34989-0.03992 0.64981-0.05988 0.90972 0.79975-0.07985 1.3496-0.13999 1.6695-0.14997 0.07985-0.02047 0.15995-0.02047 0.22982 0"/>
  <path d="m74.555 85.653c0.05989 0.07985 0.11005 0.16993 0.15995 0.28991 0.16993 0.39988 0.97969 1.3296 2.4392 2.7991 1.0297 0.94969 2.5992 1.9294 4.7185 2.9291 1.5995 0.82974 2.8791 1.2996 3.8288 1.4196 1.1096 0.15995 1.3995 0.52983 0.85974 1.1196-0.47985 0.51982-1.7594 1.0097-3.8088 1.4795-0.9597 0.25991-1.8594-0.13001-2.7191-1.1696-3.0491-3.5789-5.1484-5.6482-6.298-6.2181-0.74977 1.5395-2.0494 2.9991-3.9188 4.3986-1.3696 1.0597-2.3893 1.6995-3.079 1.9194-1.2296 0.46987-2.0593 0.61981-2.4892 0.43988-0.50984-0.18989-0.89974-0.56983-1.1696-1.1397-0.2398-0.54982-0.30992-1.0097-0.17991-1.3696 0.07985-0.20985 0.40988-0.3599 0.97971-0.46987 1.3196-0.21984 2.7491-0.82972 4.3086-1.8194 0.66979-0.41989 1.2896-0.84973 1.8594-1.2596 1.4595-1.2596 2.2593-2.6992 2.4093-4.3086-1.4796 0.06987-2.7891 0.33989-3.9388 0.80973-1.4296 0.53984-2.3293 0.53984-2.6892 0-0.30989-0.47985-0.32988-0.99967-0.0499-1.5295 0.3599-0.58982 0.9597-0.98969 1.8094-1.2196 0.66979-0.13999 1.9794-0.14997 3.9188-0.0499 0.3199-0.02047 0.64981-0.02047 0.97971 0-0.02047-0.86972-0.07985-1.8394-0.17991-2.9291-0.0499-0.65979 0.02994-1.1696 0.25994-1.5295 0.20986-0.32988 0.54982-0.49984 1.0397-0.51982 0.33989-0.01024 0.6398 0.11005 0.89971 0.38987 0.25991 0.30992 0.35988 0.85974 0.30989 1.6595-0.01024 0.42987-0.01024 0.85974 0 1.2996 0 0.56983-0.01024 1.1097-0.02047 1.6295 1.7095-0.02047 3.4689-0.02994 5.2884-0.02994 1.0097-0.02047 1.4895 0.17991 1.4195 0.59982-0.10006 0.42987-0.53981 0.9197-1.3196 1.4495-0.40988 0.27992-1.1196 0.33991-2.0993 0.17991-1.2396-0.13999-2.3793-0.20986-3.3889-0.22982-0.07012 0.37989-0.12003 0.70979-0.13999 0.97971"/>
  <path d="m80.043 109.76h-1.2896c-0.25003-0.0205-0.50984-0.11005-0.77976-0.2799-0.18989-0.14997-0.27992-0.33989-0.25991-0.55983 0.02047-0.16993 0.13001-0.30989 0.32988-0.41986 0-0.0205 0.01024-0.0299 0.02994-0.0299h2.3093c0.07985-0.30992 0.15995-0.59983 0.23007-0.84973-1.2996-0.0901-2.0394-0.19988-2.2293-0.3199-0.18989-0.14997-0.26989-0.33991-0.25991-0.56983 0.03992-0.16993 0.13999-0.3199 0.30992-0.43985v-0.0205c0.86972 0.0102 1.7194 0.0205 2.5392 0.0205 0.0499-0.16993 0.09008-0.25994 0.11004-0.27993-0.02047-0.39987-0.11004-0.6098-0.25991-0.61981-0.09008 0.0102-0.15995 0.0299-0.22982 0.0499-0.69979 0.16994-1.1996 0.0701-1.5095-0.3199-0.30989-0.35987-0.42987-0.69976-0.35988-1.0297 0.06987-0.2799 0.2398-0.46985 0.51982-0.56983 0.18989-0.0599 0.52983-0.0205 1.0097 0.10006 1.4096 0.32988 2.2093 0.57981 2.3793 0.74977 0.51985 0.30989 0.77976 0.68978 0.74977 1.1196 0 0.12002-0.06987 0.2799-0.19987 0.48983-0.08983 0.10006-0.18989 0.2899-0.28991 0.53984-0.57981 1.1796-0.9597 2.4892-1.1096 3.9088 0.89971 0 1.6495 0.17991 2.2493 0.53984 0.84973 0.48986 1.2196 1.1297 1.1196 1.9194 0.01024 0.27992 0.0499 0.51985 0.10006 0.72978 0.06987 0.14997 0.11004 0.33989 0.13001 0.53981-0.02047 0.6798-0.13001 1.1496-0.3599 1.3996-0.18989 0.23979-0.41986 0.37988-0.67978 0.38986-0.2398 0.0205-0.44986-0.0798-0.6098-0.2799-0.36988-0.93971-0.73976-1.8394-1.0997-2.7191-0.28991-0.43988-1.3396-0.68979-3.159-0.74977-0.71978-0.0599-1.5595-0.0798-2.5192-0.0798-4.9685-0.13999-8.1275 0-9.457 0.40988-0.92971 0.16993-1.3396 0.74974-1.2196 1.7394 0.05989 0.87972-0.05988 1.4496-0.3599 1.7095-0.30989 0.25991-0.61981 0.37988-0.9297 0.3599-0.32991-0.0798-0.57981-0.26992-0.75978-0.53984-0.14997-0.27993-0.19987-0.85974-0.14997-1.7395 0.0499-0.2799 0.12003-0.60981 0.17991-0.9897 0.17991-1.0197 0.3599-1.6595 0.56983-1.9394 0.37989-0.37989 1.1896-0.58982 2.4093-0.64981 0.17991-0.0102 0.36988-0.0102 0.57981 0 0-0.0299 0-0.0499 0.02047-0.0799-0.02047-0.0102-0.02047-0.0205 0-0.0205-0.3199-2.4492-0.5998-3.8788-0.79975-4.2987-0.29991-0.50982-0.34989-1.0097-0.13001-1.4995 0.14997-0.44986 0.60981-0.74977 1.3496-0.89974 1.2196-0.2799 1.9894-0.38987 2.2993-0.33989 0.30989 0.0599 0.47985 0.22982 0.49984 0.48986 0.0499 0.20986 0.01024 0.43985-0.11004 0.69979-0.13999 0.20985-0.72976 0.46984-1.7894 0.79975-0.14997 0.0699-0.21984 0.26989-0.19987 0.5998 1.1896-0.0499 1.9594-0.0102 2.2993 0.10006 0.18989 0.0699 0.29991 0.18989 0.3199 0.33991 0.0499 0.20986 0.01024 0.39988-0.11004 0.56981-0.13999 0.18989-0.38987 0.29991-0.74977 0.30992-0.55982 0.0205-1.0997 0.0399-1.6295 0.0499 0.02994 0.2799 0.05989 0.54982 0.06987 0.79975 1.3296-0.0399 2.1693-0.0102 2.5192 0.11005 0.18989 0.0699 0.28991 0.17991 0.30989 0.32988 0.0499 0.20985 0.02047 0.38989-0.11005 0.55982-0.18989 0.2398-1.0497 0.3499-2.5892 0.3499 0.03992 0.33988 0.07985 0.66979 0.13001 0.97968 3.079-0.14997 6.5679-0.16993 10.477-0.0499 0.02994-0.18989 0.07985-0.39988 0.14997-0.61981m-4.5586 8.1075c-2.0594-0.0399-3.8588 0.2398-5.4183 0.82974-1.2296 0.45987-1.9994 0.45987-2.3293 0-0.29991-0.39987-0.3199-0.83972-0.0499-1.3196 0.47985-0.72978 1.0597-1.0896 1.7295-1.0896 0.18989-0.0399 1.7994-0.0499 4.8185-0.0499-0.5998-0.20985-0.89971-0.47985-0.89971-0.80973 0.02994-0.2398 0.12003-0.39987 0.2799-0.45986 0.25994-0.11005 0.62982-0.15995 1.1196-0.15995 0.54984 0.0205 0.97971 0.20985 1.2896 0.59982 0.02047-0.0399 0.05989-0.0699 0.13001-0.0798 0.12003-0.0699 0.21984-0.1899 0.28991-0.33992 0.0499-0.12002 0.06987-0.18989 0.0499-0.20985 0.0499-0.25991-0.17991-0.51983-0.69976-0.76976-0.69979-0.0599-1.4995 0-2.3593 0.14997-1.3995 0.25994-2.2593 0.3599-2.5692 0.30992-0.52983-0.13999-0.6398-0.41986-0.30989-0.85974 0.25991-0.35987 0.50984-0.58981 0.74977-0.68978 0.36988-0.0901 0.85974-0.13 1.4795-0.13 2.9391-0.23008 4.8885-0.11005 5.8582 0.35987 0.54982 0.25994 0.83972 0.52983 0.84973 0.79975 0.07985 0.22982 0 0.43988-0.23007 0.64981-0.32988 0.36988-0.77974 0.70976-1.3496 1.0397-0.57981 0.28991-0.98969 0.49984-1.2096 0.61981 1.6195-0.0205 3.289-0.0205 4.9984-0.0205 0.89971-0.0299 1.3096 0.14997 1.2496 0.50984-0.09008 0.36988-0.47985 0.77976-1.1696 1.2496-0.3599 0.23979-0.97969 0.29991-1.8394 0.17991-1.0597-0.15995-2.0294-0.25003-2.9291-0.25994 0.20985 1.1397 0.14997 2.1993-0.17991 3.189-0.27992 0.73976-0.84976 1.3196-1.7195 1.7395-0.78974 0.42984-1.7295 0.64978-2.7891 0.66977-1.0097 0.0299-1.9994-0.61979-2.9891-1.9694-0.25003-0.41986-0.3199-0.69976-0.20985-0.85971 0.06987-0.0799 0.3199-0.0499 0.72976 0.11004 1.0897 0.3499 2.1493 0.47985 3.189 0.40988 1.0697-0.0599 1.7694-0.2899 2.0993-0.66979 0.41986-0.49984 0.55982-1.1496 0.43985-1.9394-0.0499-0.27992-0.07985-0.51985-0.10006-0.72978m-1.3196-11.356c-0.38989 0.18989-0.74977 0.29991-1.0897 0.30992-0.30992 0.0399-0.50984-0.0599-0.56983-0.27993-0.06987-0.25003 0.13001-0.47985 0.58982-0.69978 0.25991-0.17991 0.49984-0.33989 0.69979-0.48983-0.19987-0.11005-0.38989-0.1899-0.56983-0.26992-0.61981-0.26992-0.81974-0.61981-0.58982-1.0597 0.2398-0.40989 0.6398-0.51985 1.1896-0.30992 0.49986 0.17991 0.90972 0.41988 1.2196 0.72978 0.30989-0.25991 0.5998-0.48986 0.84973-0.69979 0.50984-0.46984 0.9197-0.48983 1.2496-0.0799 0.25003 0.41987 0.16993 0.82975-0.25991 1.2696-0.17991 0.12003-0.36988 0.2699-0.59982 0.43985 0.49984 0.37989 0.85974 0.73976 1.0597 1.0697 0.15995 0.25003 0.15995 0.45986 0 0.61981-0.16993 0.13999-0.45984 0.0599-0.87972-0.20985-0.47985-0.30992-0.93969-0.57984-1.3696-0.80976-0.29991 0.13999-0.60981 0.29991-0.92971 0.46984m-1.1196 3.7388c-0.28991 0.0299-0.47985-0.0599-0.53984-0.25991-0.06987-0.19988 0.10006-0.41986 0.50984-0.6798 0.2398-0.18989 0.47985-0.35988 0.67977-0.50985-0.06987-0.0399-0.12003-0.0699-0.15995-0.0798-0.61979-0.2799-0.81974-0.6398-0.58982-1.0696 0.2398-0.40989 0.6398-0.51985 1.1896-0.30992 0.18989 0.0699 0.43985 0.21983 0.74977 0.43987 0.02047 0.0205 0.02994 0.0399 0.02994 0.0599 0.19987-0.19988 0.38987-0.36988 0.56981-0.51983 0.45986-0.43987 0.83975-0.46984 1.1196-0.11004 0.26992 0.37988 0.21984 0.77976-0.15995 1.1996-0.11004 0.0799-0.2398 0.17991-0.38987 0.30989h0.02994c0.3199 0.26992 0.5698 0.54985 0.74977 0.82975 0.14997 0.25003 0.14997 0.45986 0 0.61981-0.17991 0.13999-0.45986 0.0599-0.85974-0.20985-0.3599-0.20986-0.69979-0.38987-1.0097-0.53984-1.2096 0.54984-1.8494 0.82974-1.9194 0.82974"/>
 </g>
 <g fill="#0a8c6e" stroke-width="2.5592">
  <path d="m32.248 25.882c-0.43985 0.32988-1.1297 0.76976-1.5795 0.35987-1.1596-1.0597-4.2587-3.8188-5.0884-4.6985-0.46984-0.50982-0.32988-0.9197 0.21984-1.8294 0.26992-0.43985-0.28991-1.4496-1.1096-0.65979-1.9794 1.9294-17.245 15.345-11.586 20.604 6.1181 5.6982 18.334-10.657 20.104-12.646 0.62979-0.70977-0.38987-1.5495-0.9597-1.1296m-14.405 9.3071c-3.169-2.3293 1.0497-7.7876 2.8791-9.507 0.87972 0.82974 6.298 5.5883 6.298 5.5883s-5.5882 6.5679-9.1771 3.9188"/>
  <path d="m10.495 40.117c-0.12003-1.2796-0.14997-2.3093-0.71978-2.3793-0.82974-0.12003-1.5095 1.8494-2.1593 3.309-0.65979 1.4995-1.0297 3.069-0.049904 3.269 0.82974 0.15995 0.68978-1.4895 1.3196-0.94969 0.38989 0.32988 0.84976 1.0297 1.3896 1.7194-0.12003 0.6098-2.3792 6.9678-2.5992 7.1878-0.21984 0.20986-2.0494 0.48983-2.3793 0.48983 0.049904-0.54982 0.16993-1.0497-0.60981-1.3796-0.49984-0.21984-1.3796 1.5795-2.7091 4.7485-1.1596 2.7691-0.82974 3.4289-0.15995 3.4289 0.65979 0 0.54982-0.93969 1.4895-0.98969 0.89971-0.05989 7.0678-1.5795 9.8869-2.6492 1.6095-0.60981 2.9491-1.6595 3.4889-3.4389 1.0997-3.6389-6.1281-11.626-6.1881-12.366m3.029 10.497c-0.26989 0.43985-2.3093 0.87972-3.3089 1.0997 0-0.15995 1.1596-3.309 1.5495-4.3586 0.49986 0.43988 2.0494 2.8191 1.7594 3.259"/>
  <path d="m1.148 65.15c-0.59982 0.06987-1.0497 0.65979-1.0997 4.9684-0.059885 4.3186-0.16993 4.4786 0.43985 4.5886 0.60983 0.11004 1.1097-1.0497 1.3796-1.4395 0.2799-0.37989 2.4892-0.32988 2.8791 0.12003 0.53981 0.60981 5.0284 5.7382 5.2484 6.348 0.2799 0.77974 0.43985 1.4995 0.93971 1.4395 0.49984-0.0499 0.82972-0.43988 0.98967-3.4289 0.16993-2.9791-0.11004-3.8688-0.54982-3.5889-0.43985 0.2799-0.88973 1.4795-1.1596 1.4395-0.77976-0.11005-3.149-4.1987-3.369-4.2587-0.21984-0.0499 2.9391-3.9188 3.369-4.0387 0.60981-0.15995 0.65979 0.77976 1.0497 0.82974 0.38989 0.05988 1.1097-0.15995 1.2196-1.9294 0.12003-1.9594 0.16993-5.4483 0.16993-5.9681 0-0.77976-0.99967-1.3896-1.5495-0.60981-0.70977 0.98969-1.2196 1.4395-2.0993 2.5992-0.94969 1.2396-2.9891 3.8688-3.7088 4.5885-0.57981 0.57984-2.7091 0.48986-2.9791 0.26992-0.27993-0.21984-0.71977-1.9894-1.1696-1.9294"/>
  <path d="m0.92802 84.494c-1.4295 0.21984 0.88973 6.6879 1.8794 10.227 0.9997 3.5289 1.5995 7.7376 2.3193 8.2274 0.71977 0.49983 1.3896 0.49983 1.9894 0 0.60981-0.48986 0.88971-1.3196 0.2799-1.9894-0.60981-0.65978-1.8794-2.6492-2.3193-4.1987-0.37986-1.3296-1.2096-4.5886-0.93969-5.0884 0.26989-0.48986 2.7591-1.0997 3.089-0.98969 0.61979 0.19987 1.5595 3.6988 1.4995 5.7482-0.11005 3.5389 2.4292 3.149 2.8191 2.2593 0.42987-0.98969-0.49986-3.0891-0.93971-4.4686-0.28991-0.89971-1.2196-3.5389-0.93971-3.9288 0.27993-0.37989 1.5995-0.9997 2.0394-0.82974 0.62979 0.2398 2.1093 5.9181 1.9394 7.1278-0.16993 1.2196-0.44986 3.269 0.43985 3.379 0.88973 0.11004 2.8891-0.58982 2.0494-2.8791-1.7095-4.6385-3.209-14.695-4.4286-15.035-1.2096-0.32991-0.76976 1.0497-1.6495 1.4396-1.2496 0.54982-6.528 1.7694-7.4677 1.9394-0.65981 0.11004-0.74977-1.0797-1.6595-0.93971"/>
  <path d="m16.853 101.52c-0.82974 0.52985 0.37986 1.4296-0.33991 1.9894-0.43985 0.33989-6.0181 4.4186-6.6279 4.5786-0.60981 0.16993-0.87972-0.76976-1.5495-0.26992-0.51982 0.37989 0.49984 2.1493 1.8194 3.8688 1.2796 1.6495 2.1593 3.4789 2.8291 3.259 0.34989-0.12003 0.69976-0.62982 0.32988-1.4895-0.16993-0.3899 2.6992-2.3193 3.089-2.3793 0.66979 0.71977 4.6985 6.408 4.8685 6.7979 0.15995 0.38987-2.9291 2.3193-2.9291 2.3193s-1.1496-0.84973-1.7695-0.43987c-0.66979 0.43987 1.2596 2.9891 1.9894 4.0387 0.88973 1.2696 2.5192 3.9988 3.149 3.369 0.65981-0.6698 0.32991-1.5595 0.26992-1.8794-0.11005-0.6098 5.5483-4.1487 6.7479-4.7585 0.54982-0.26992 1.1297 0.6398 1.6595 0.21983 0.49984-0.37986 0.37989-1.0896-0.98969-3.039-0.93971-1.3196-2.9391-4.6885-3.8188-4.1987-0.57981 0.32988 0.14997 1.4096-0.16993 1.6595-0.54984 0.43985-1.5395 1.4995-2.4792 1.7194-1.1097-1.6595-4.6486-5.8682-4.8085-6.7979 0.43985-0.55983 2.0993-2.0494 2.5992-1.7695 0.48986 0.26992 0.98969 0.92973 1.5495 0.21984 0.36988-0.48983-1.2796-2.8791-2.2693-4.1987-0.99967-1.3296-2.3792-3.319-3.149-2.8191"/>
  <path d="m34.957 125.09c0.53984-0.85974 2.5092 0.44986 4.2387 1.2896 1.9494 0.94969 4.7885 2.4992 4.1887 3.299-0.69976 0.9297-1.0397-0.14997-1.7894 0.10006-0.93969 0.30992-3.7988 3.4489-3.6988 5.8382 0.07985 1.7594 2.1093 3.259 3.299 3.8988 1.3896 0.74977 5.0184 2.2193 6.538-0.29991 1.4995-2.4992 1.9894-3.9488 1.8394-4.7985-0.13999-0.84973-0.74977-0.93969-0.98969-1.5495-0.29989-0.73976 0.33991-1.2396 1.1896-0.89971 1.1196 0.45986 2.0294 1.0597 2.4992 1.3096 0.94969 0.48986 2.9691 1.3496 2.4992 2.2893-0.39988 0.79975-1.0097-0.12003-1.5495 0.39988-1.0497 0.9997-1.0597 5.1284-4.0887 6.8878-2.1493 1.2496-6.8979-0.64981-8.2374-1.3996-1.6795-0.9297-8.4874-4.1887-8.5873-7.7376-0.07985-2.5892 1.5895-4.7185 2.8991-6.1381 1.2396-1.3396-0.88973-1.5195-0.25003-2.4892"/>
  <path d="m57.66 135.47c-0.09008 0.45986-0.29991 1.3396 1.4995 1.4496-0.19987 4.8884 0.0499 6.9878-0.29991 8.2374-0.25991 0.9197-1.6095-0.0102-2.0494 0.5998-0.2398 0.34989-0.33991 1.1896 0.50984 1.4995 0.83972 0.2899 6.9078 0.74977 7.0778-0.10007 0.29991-1.4496-0.78974-1.1496-1.5495-1.3496-0.61981-0.16993 0.15995-4.9984 0.19987-6.0481 0.04991-0.76976 9.9069 8.0075 10.887 8.6373 1.2496 0.79975 3.7688 0.93971 4.4486 0.0499 0.6398-0.84973 0.6798-8.8872 1.0397-9.3271 0.69979-0.84973 1.7594-0.25003 1.7994-1.4496 0.03992-0.80973-0.54982-0.85972-3.5489-0.89972-1.1896-0.0205-3.4289-0.5998-3.7388 0.44986-0.29989 1.0497 1.3196 1.1097 1.4995 1.5995 0.25003 0.69979-0.10006 4.5886-0.34989 4.7385-0.25003 0.14997-8.7473-7.9875-10.587-8.1374-3.089-0.25004-6.6879-0.74977-6.8378 0.0499"/>
  <path d="m84.772 136.92c-0.34989-1.0497 1.8994-1.2996 3.7888-1.7495 1.8994-0.44985 4.0587-1.3096 4.3486-0.49983 0.39988 1.1496-0.81976 0.75975-0.64981 1.8994 0.19987 1.3496 1.1396 6.508 1.4895 7.4876 0.39988 1.0897 1.5395 0.10006 1.8494 1.3496 0.24978 0.9997-2.3293 1.5695-3.8388 1.8994-1.3996 0.28991-4.6586 1.1596-4.8485 0.33989-0.33991-1.4895 0.65979-0.83973 0.74974-1.8394 0.14997-1.4995-1.1496-6.7479-1.4395-7.6376-0.2799-0.83975-1.2096-0.51985-1.4495-1.2496"/>
  <path d="m94.599 134.62c0.70979-0.69979 6.8379-4.3386 7.8476-3.5889 0.98969 0.74977-0.50985 1.3396-0.25991 1.8394 0.25991 0.49986 6.238 4.5986 6.8478 4.3986 0.58982-0.19987 1.9994-7.0878 1.5895-7.9375-0.39987-0.84973-1.2996-0.14997-2.0394-0.54982-0.74977-0.39987-0.94972-1.2996 1.5395-2.4492 2.4992-1.1496 3.9488-2.1393 4.3486-1.3996 0.39988 0.74977-0.54984 1.0997-0.54984 1.6495 0 0.54984-0.19987 10.087-2.0993 12.386-1.8994 2.2993-3.8488 2.6392-5.1384 2.5392-1.2996-0.10006-9.587-5.5383-10.387-5.6382-0.79975-0.10006-0.84973 0.44986-1.3496 0.0499-0.49984-0.39988-0.99967-0.64981-0.34989-1.2996"/>
  <path d="m126.2 110.68c-0.9897 0.43985-4.1887 4.1887-5.6982 5.9581-1.5095 1.7594-5.6183 6.1481-5.8482 6.6879-0.2899 0.69976 0.61981 1.5295 1.6195 0.65979 0.54984-0.47985 2.3593 1.6495 3.239 2.5392 0.74976 0.74974 3.209 2.7891 3.159 3.159-0.0699 0.58981-0.58981 1.0697-0.0699 1.5495 0.35987 0.32991 0.8897 0.17992 1.5795-0.70976 0.83972-1.0997 11.136-11.386 11.496-12.966 0.26992-1.1596-1.0597-2.3593-1.8994-2.0294-0.54984 0.21984-1.5895 1.4396-1.3996 2.5792 0.15995 0.9997-4.8185 5.9481-5.3383 6.7179-0.94969-0.53981-2.7491-2.6092-2.7491-2.6092s3.7488-4.1787 4.3687-4.5886c0.62979-0.39988 2.0293-1.5795 1.0297-2.5392-0.80975-0.77976-1.8694-0.54984-2.8291 1.1096-0.9597 1.6495-3.9688 4.4786-4.1187 4.6285-0.13999 0.13999-1.9794-1.7294-1.9794-1.7294s4.0087-5.3683 6.1681-5.8382c2.0294-0.44986 1.3996-1.5095 0.84975-2.2493-0.3299-0.43988-0.73979-0.69979-1.5795-0.32991"/>
  <path d="m147.48 92.301c-0.57982-1.0097-1.2896 0.70979-1.9294 0.87972-0.61982 0.16993-4.5586 1.5095-5.0184 1.0897-0.45986-0.41986 0.25003-1.8494-0.45986-3.3889-0.61979-1.3496-3.069-1.4295-4.1487 0.12003-0.73976 1.0497-8.5973 15.415-7.9275 16.505 0.57984 0.9297 1.5095 0 1.8494-0.45986 0.49984-0.6698 2.4692 0.62979 3.6889 1.2996 1.7194 0.94972 3.8588 1.7594 3.8988 2.2593 0.0399 0.49984-0.36989 1.3396 0.36988 1.6795 1.0097 0.45984 4.9485-7.8776 4.1887-8.2574-0.85971-0.41987-1.4396 0.62981-1.6695 0.83975-0.50984 0.45986-2.7691-1.1696-2.7691-1.1696 0.50984-3.8188 3.8988-4.7785 5.0684-4.8585 1.1696-0.09008-0.41989 1.2096 0.70976 1.7095 1.1396 0.50984 4.7385-7.2477 4.1487-8.2474m-11.936 10.267c-0.24978 0-3.0191-1.1396-2.8891-1.2996 0.12003-0.16993 2.1993-6.5279 4.0187-5.6182 1.9294 0.96968-0.87973 6.9178-1.1297 6.9178"/>
  <path d="m140.69 70.008c-0.70977-0.76976-2.2093-0.08983-2.6692 1.6995-0.32988 1.2396-0.97968 7.4776-0.46984 10.507 0.50984 3.019 2.0794 4.6285 3.359 4.6285 1.6995 0 3.359-1.6095 3.6589-4.1287 0.25991-2.1993 0.84973-9.0072 2.2093-8.9172 1.4495 0.09008 1.8294 5.8182 0.58982 8.1574-1.1896 2.2793-2.7991 3.0591-2.1693 4.9385 0.3199 0.91972 1.9194 1.2696 2.9791-0.55982 0.96971-1.6695 2.2093-7.0578 1.6995-11.137-0.43985-3.5889-1.5295-7.1478-3.9487-6.9378-2.4292 0.21984-3.269 3.109-3.9188 7.2377-0.62982 4.1187-0.62982 5.7382-1.6095 5.6082-0.97969-0.13001-2.1293-2.4692-0.93972-6.7579 0.48986-1.7795 2.4692-3.0191 1.2296-4.3387"/>
  <path d="m136.33 58.022c-0.59982 0.21984 0 3.249 0.20986 4.7185 0.25003 1.8194 0.54982 4.1187 1.3596 4.0387 0.80976-0.09008 0.25003-1.4196 0.97969-1.6595 1.0097-0.33989 7.6976-1.4496 8.3674-1.3196 0.62982 0.11004 0.21984 1.2696 1.0297 1.1896 0.80973-0.09008 0.20985-3.4389 0.0399-4.7185-0.16993-1.2796-0.33989-4.1987-1.3596-4.0387-0.80973 0.12003-0.25992 1.4296-0.97969 1.6095-1.0197 0.25991-7.1877 1.4895-8.0375 1.3196-0.84976-0.16993-0.58982-1.5295-1.6095-1.1396"/>
  <path d="m130.41 39.478c-0.6698 0.26992-1.5595 1.5295-1.4796 2.2893 0.12002 1.2396 2.3093 4.9085 2.8891 6.2081 0.75978 1.7494 2.8891 6.5579 3.399 7.0678 1.0197 1.0197 2.2993 0.6398 2.7691 0.49984 0.45984-0.12003 1.0996-0.79975 0.62979-1.6495-0.2899-0.52983-3.4789-2.5392-3.3989-3.239 0.0798-0.75975 1.3396-1.0497 2.5092-1.6495 1.2396-0.6398 4.3786-2.2593 5.2284-2.0893 0.84973 0.16993 0.90972 1.2696 1.5295 0.84973 0.76975-0.49984-0.13001-2.3793-1.0197-4.0387-0.90972-1.6895-2.0794-4.7985-2.8491-4.5086-0.75975 0.29991-0.32991 1.3196-0.58982 1.8794-0.25991 0.54982-2.8491 1.4395-4.2187 2.2093-1.0397 0.58982-2.5092 1.3996-3.179 1.0997-0.68978-0.28991-0.76976-2.0793-0.59983-3.099s-0.33988-2.3393-1.6195-1.8294"/>
  <path d="m114.17 23.483c-1.1996 0.33989 0.58982 2.1393 1.4396 3.109 0.93971 1.0597 2.5892 2.7391 3.229 2.2993 0.84973-0.59982-0.71977-1.5795-0.12002-1.9994 0.36988-0.26992 4.7685 0.10006 5.0984 0.50984 0.50984 0.6398 0.42986 4.4586 0.21983 5.0984-0.18989 0.53984-1.0297-0.28991-1.4496 0.6798-0.22982 0.52983 1.8294 2.7191 2.6392 3.5789 0.79975 0.84973 3.179 3.3989 3.7388 2.6292 0.54982-0.75975-0.59982-9.477-0.33988-10.327 0.24977-0.84973 1.6195-1.6195 2.0394-1.6195 0.41986 0 1.1896 0.89971 1.7894 0.33989 0.58982-0.54982-1.4995-2.7191-2.4692-3.7388-0.97971-1.0197-3.0191-4.0787-3.9588-3.3989-0.56981 0.40988-0.17991 1.3096 0.0901 1.7794 0.37989 0.68981-1.4096 1.9594-2.0394 2.2093-0.6398 0.25991-8.9772-1.4096-9.9069-1.1496"/>
 </g>
</svg>
